Coordinates
version=1
nRows=14
nColumns=24
inDegrees=yes

Units are S.I. units (second, meters, Newtons, ...)
Angles are in degrees.

endheader
time	pelvis_tilt	pelvis_list	pelvis_rotation	pelvis_tx	pelvis_ty	pelvis_tz	hip_flexion_r	hip_adduction_r	hip_rotation_r	knee_angle_r	ankle_angle_r	subtalar_angle_r	mtp_angle_r	hip_flexion_l	hip_adduction_l	hip_rotation_l	knee_angle_l	ankle_angle_l	subtalar_angle_l	mtp_angle_l	lumbar_extension	lumbar_bending	lumbar_rotation
      1.27516667	     -2.46045637	      4.39208764	     -3.71715123	      0.22506541	      0.90827911	      0.30641682	     17.62655340	     -7.99285264	     -9.02584954	    -71.43108413	     -4.28214015	      2.92650081	     10.85648545	     14.17680313	      7.91459162	     -4.27994069	    -16.41382355	      5.38508788	     -9.89474419	      3.14986983	     -5.25133646	     -8.54748922	      2.80025913
      1.27933333	     -2.43319101	      4.24652405	     -3.58886274	      0.23026330	      0.90948152	      0.30613723	     18.19160347	     -7.81225630	     -9.18456523	    -71.09016137	     -3.60110804	      2.95366372	     10.72911451	     13.46956841	      7.84936446	     -4.05751979	    -15.81613913	      5.41591958	     -9.87380677	      3.16276980	     -5.32031837	     -8.37766044	      2.48351594
      1.28350000	     -2.43638678	      4.08487199	     -3.44144218	      0.23539968	      0.91059982	      0.30585412	     18.77640440	     -7.60245644	     -9.35354174	    -70.68768501	     -2.92814347	      2.87240325	     10.64855535	     12.82334803	      7.75604106	     -3.84892459	    -15.26952099	      5.41942339	     -9.80096361	      3.17124687	     -5.38433851	     -8.16897908	      2.28896262
      1.28766667	     -2.39197460	      3.92222635	     -3.29019459	      0.24059979	      0.91178988	      0.30554669	     19.27496779	     -7.40404425	     -9.53698388	    -70.19189751	     -2.32925628	      2.87689135	     10.53109555	     12.09228402	      7.66981798	     -3.60910848	    -14.65829417	      5.43436236	     -9.78854586	      3.18166534	     -5.46299936	     -7.98075727	      1.98522953
      1.29183333	     -2.39790970	      3.74446477	     -3.11922560	      0.24574995	      0.91286236	      0.30524646	     19.81376815	     -7.17597360	     -9.72918083	    -69.63791585	     -1.71328015	      2.78241656	     10.48953440	     11.45464579	      7.54961918	     -3.42506619	    -14.11964003	      5.42162307	     -9.68124245	      3.18677929	     -5.48113874	     -7.76371126	      1.84897848
      1.29600000	     -2.30135090	      3.57146336	     -2.95191974	      0.25092776	      0.91407691	      0.30489929	     20.21327709	     -6.97226294	     -9.92476113	    -69.00131073	     -1.19053434	      2.82303400	     10.36917565	     10.65236444	      7.45666760	     -3.12281119	    -13.47029263	      5.42312345	     -9.71040104	      3.19563786	     -5.66591372	     -7.54403458	      1.47327060
      1.30016667	     -2.24654011	      3.38256611	     -2.76208010	      0.25607816	      0.91518913	      0.30455057	     20.63658133	     -6.74466900	    -10.13767718	    -68.30027128	     -0.66091154	      2.79881182	     10.26424728	      9.92338118	      7.33224767	     -2.85300772	    -12.87437711	      5.39792068	     -9.69140193	      3.20259157	     -5.78604462	     -7.30949782	      1.21279741
      1.30433333	     -2.17190248	      3.19803714	     -2.56988246	      0.26122556	      0.91629656	      0.30419626	     21.01866068	     -6.52237411	    -10.34659425	    -67.53145633	     -0.16901240	      2.78364115	     10.15139570	      9.16765022	      7.20996310	     -2.57697971	    -12.26228288	      5.37126423	     -9.67653083	      3.20850871	     -5.92176186	     -7.07970289	      0.93507400
      1.30850000	     -2.09120195	      3.00484478	     -2.36467805	      0.26636654	      0.91737093	      0.30382871	     21.37127047	     -6.29302963	    -10.56917551	    -66.69742814	      0.29522149	      2.76799164	     10.04930551	      8.41231146	      7.07231917	     -2.30614528	    -11.66129017	      5.34719878	     -9.64706811	      3.21298983	     -6.06636721	     -6.83545162	      0.67551701
      1.31266667	     -1.99589176	      2.81332817	     -2.15511112	      0.27149906	      0.91842647	      0.30345396	     21.68778350	     -6.06725485	    -10.79026569	    -65.79826620	      0.73107534	      2.75261333	      9.94925817	      7.64045328	      6.93199604	     -2.03134867	    -11.05369350	      5.31667831	     -9.62191461	      3.21612506	     -6.22612546	     -6.59391992	      0.40954418
      1.31683333	     -1.89282824	      2.62623411	     -1.94036435	      0.27662298	      0.91944096	      0.30308419	     21.97840582	     -5.84546236	    -11.01103786	    -64.84216122	      1.14073479	      2.73374464	      9.83627611	      6.86017290	      6.79043857	     -1.74547532	    -10.44012128	      5.27553376	     -9.61425622	      3.21873598	     -6.39493103	     -6.36165828	      0.12663218
      1.32100000	     -1.80663809	      2.42159956	     -1.70737680	      0.28172353	      0.92039146	      0.30270144	     22.26102718	     -5.60381953	    -11.24544676	    -63.81446981	      1.53992976	      2.71644309	      9.76524805	      6.12708654	      6.61879533	     -1.49883004	     -9.88129326	      5.23200321	     -9.54683259	      3.22047254	     -6.53980293	     -6.11227315	     -0.07594013
      1.32516667	     -1.66192874	      2.24994973	     -1.49427299	      0.28683968	      0.92135270	      0.30231618	     22.47501848	     -5.40355297	    -11.45740779	    -62.75119376	      1.86784136	      2.69065545	      9.65511787	      5.28997590	      6.48547265	     -1.20116238	     -9.23446832	      5.21496586	     -9.55170087	      3.22252620	     -6.75866746	     -5.87222948	     -0.39668807
      1.32933333	     -1.56730624	      2.05321549	     -1.25259631	      0.29191605	      0.92220547	      0.30193830	     22.71270290	     -5.16901582	    -11.68588185	    -61.60950495	      2.21591403	      2.66466685	      9.58544202	      4.55965825	      6.30755306	     -0.95914520	     -8.68842754	      5.16309048	     -9.48747852	      3.22351614	     -6.91007561	     -5.63047076	     -0.59788430
